<?xml version="1.0" standalone="no"?>
<!DOCTYPE svg PUBLIC "-//W3C//DTD SVG 20010904//EN"
 "http://www.w3.org/TR/2001/REC-SVG-20010904/DTD/svg10.dtd">
<svg version="1.0" xmlns="http://www.w3.org/2000/svg"
 width="100.000000pt" height="100.000000pt" viewBox="0 0 100.000000 100.000000"
 preserveAspectRatio="xMidYMid meet">
<metadata>
Created by potrace 1.14, written by Peter Selinger 2001-2017
</metadata>
<g transform="translate(0.000000,100.000000) scale(0.100000,-0.100000)"
fill="#000000" stroke="none">
<path d="M425 984 c-15 -8 -36 -12 -45 -9 -9 3 -30 -5 -45 -17 -16 -13 -34
-23 -40 -24 -5 0 -16 -2 -22 -2 -7 -1 -13 -9 -13 -17 0 -8 -4 -15 -10 -15 -5
0 -21 -11 -35 -25 -23 -24 -29 -38 -26 -58 1 -5 -3 -6 -9 -2 -6 3 -18 -1 -27
-10 -14 -14 -14 -18 -2 -26 10 -6 10 -9 2 -9 -7 0 -13 -7 -13 -16 0 -8 -4 -13
-9 -10 -12 8 -16 -17 -16 -84 0 -46 3 -55 18 -54 9 1 17 -2 17 -7 0 -5 14 -9
30 -9 24 0 30 4 30 21 0 21 1 21 26 4 16 -10 30 -13 37 -7 7 5 24 12 40 16
l27 6 0 -146 c0 -123 2 -145 14 -141 10 4 13 1 9 -9 -3 -7 -9 -14 -14 -14 -5
0 -9 -26 -10 -57 0 -32 -3 -52 -6 -45 -2 6 -13 12 -24 12 -14 0 -19 -7 -19
-26 0 -27 -10 -39 -82 -111 -43 -42 -46 -56 -17 -76 16 -12 29 -13 57 -5 20 6
42 14 48 19 8 6 24 3 45 -9 39 -22 97 -22 131 0 21 13 26 13 53 -4 37 -22 76
-23 120 -2 30 14 36 14 64 0 37 -19 71 -20 95 -3 24 17 14 49 -19 67 -13 7
-28 25 -34 41 -5 15 -19 33 -31 39 -12 6 -19 17 -17 23 7 21 -13 48 -31 43
-14 -5 -17 1 -15 42 1 31 -4 53 -15 65 -13 15 -14 18 -2 15 13 -2 15 18 17
122 0 69 2 132 2 141 1 12 8 15 29 11 15 -2 32 -9 39 -14 8 -6 21 -3 37 7 25
17 26 17 26 -4 0 -17 6 -21 36 -21 29 0 35 3 30 16 -3 8 -2 13 3 9 12 -7 43
24 35 36 -3 5 -7 29 -8 53 -2 47 -27 82 -48 70 -8 -5 -7 0 2 11 11 14 12 19 2
22 -6 3 -10 9 -6 14 3 5 -2 9 -10 9 -9 0 -16 7 -16 15 0 8 -4 15 -10 15 -5 0
-10 6 -10 14 0 8 -9 18 -20 21 -11 3 -20 11 -20 16 0 6 -4 7 -10 4 -5 -3 -10
1 -10 9 0 17 -1 17 -39 21 -14 1 -29 9 -35 16 -6 8 -27 16 -46 18 -19 1 -37 7
-40 12 -5 8 -79 3 -89 -6 -2 -3 -9 -1 -16 5 -7 6 -21 4 -40 -6z m-72 -809
c-21 -16 -26 -14 -17 8 3 9 12 13 20 10 12 -4 11 -8 -3 -18z m307 -7 c0 -11
-23 -5 -32 7 -4 5 -2 13 5 17 11 6 27 -8 27 -24z"/>
</g>
</svg>
